<svg width="24.000000000000004" height="24.000000000000004" xmlns="http://www.w3.org/2000/svg">
 <title/>

 <g>
  <title>background</title>
  <rect fill="none" id="canvas_background" height="402" width="582" y="-1" x="-1"/>
 </g>
 <g>
  <title>Layer 1</title>
  <path fill="#fff0e5" id="svg_1" d="m22.41,10.59l-2.05,-2.05l0,-2.91a2,2 0 0 0 -2,-2l-2.9,0l-2.05,-2a2,2 0 0 0 -2.82,0l-2.05,2.01l-2.91,0a2,2 0 0 0 -2,2l0,2.9l-2,2.05a2,2 0 0 0 -0.63,1.41a2,2 0 0 0 0.58,1.41l2.06,2.05l0,2.91a2,2 0 0 0 2,2l2.9,0l2.05,2.05a2,2 0 0 0 1.41,0.58a2,2 0 0 0 1.41,-0.58l2.05,-2.06l2.91,0a2,2 0 0 0 2,-2l0,-2.9l2.05,-2.05a2,2 0 0 0 0,-2.82l-0.01,0zm-4.04,4.05l0,3.72l-3.73,0l-2.64,2.64l-2.64,-2.64l-3.72,0l0,-3.72l-2.64,-2.64l2.64,-2.64l0,-3.72l3.72,0l2.64,-2.64l2.64,2.64l3.72,0l0,3.72l2.64,2.64l-2.63,2.64z"/>
  <polygon fill="#fff0e5" id="svg_2" points="11 12.73 8.71 10.44 7.29 11.85 11 15.56 16.71 9.85 15.29 8.44 11 12.73"/>
 </g>
</svg>