<svg data-v-423bf9ae="" xmlns="http://www.w3.org/2000/svg" viewBox="0 0 347 90" class="iconLeft"><!----><!----><!----><g data-v-423bf9ae="" id="cccee79e-ce97-434a-b426-1e84318d1eb9" fill="#39414d" transform="matrix(5.940593835033989,0,0,5.940593835033989,106.97030225605056,-4.2475247974197785)"><path d="M4.07 13.34C6.15 13.34 7.61 11.81 7.61 9.84C7.61 7.89 6.15 6.36 4.07 6.36C1.95 6.36 0.51 7.89 0.51 9.84C0.51 11.81 1.95 13.34 4.07 13.34ZM4.07 12.13C2.84 12.13 1.98 11.14 1.98 9.84C1.98 8.56 2.84 7.57 4.07 7.57C5.28 7.57 6.14 8.56 6.14 9.84C6.14 11.14 5.28 12.13 4.07 12.13ZM12.45 6.36C11.52 6.36 10.82 6.75 10.41 7.32L10.24 6.53L9.00 6.53L9.00 13.15L10.41 13.15L10.41 9.11C10.53 7.95 11.32 7.57 12.06 7.57C13.08 7.57 13.52 8.30 13.52 9.38L13.52 13.15L14.93 13.15L14.93 9.06C14.93 7 13.61 6.36 12.45 6.36ZM22.91 9.70C22.91 7.73 21.58 6.36 19.66 6.36C17.68 6.36 16.25 7.89 16.25 9.84C16.25 11.80 17.66 13.31 19.83 13.31C20.97 13.31 21.93 12.92 22.53 12.25L21.55 11.46C21.13 11.94 20.56 12.19 19.82 12.19C18.58 12.19 17.84 11.33 17.73 10.15L22.91 10.15ZM19.66 7.50C20.69 7.50 21.36 8.12 21.51 9.17L17.79 9.17C18.00 8.17 18.68 7.50 19.66 7.50ZM24.37 13.15L25.78 13.15L25.78 3.24L24.37 3.24ZM28.44 5.26C28.95 5.26 29.36 4.86 29.36 4.36C29.36 3.86 28.95 3.46 28.44 3.46C27.94 3.46 27.53 3.86 27.53 4.36C27.53 4.86 27.94 5.26 28.44 5.26ZM27.77 13.15L29.15 13.15L29.15 6.53L27.77 6.53ZM30.44 12.22C30.92 12.88 31.92 13.34 33.16 13.34C34.80 13.34 35.80 12.54 35.80 11.35C35.80 9.00 32.30 9.79 32.30 8.36C32.30 7.86 32.68 7.53 33.45 7.51C33.94 7.50 34.49 7.73 34.88 8.11L35.66 7.22C35.22 6.75 34.37 6.36 33.40 6.36C31.82 6.36 30.86 7.19 30.86 8.41C30.86 10.82 34.30 10.09 34.30 11.38C34.30 11.87 33.89 12.21 33.07 12.21C32.42 12.21 31.82 11.97 31.34 11.35ZM40.29 6.53L38.88 6.53L38.88 4.64L37.48 4.64L37.48 6.53L36.60 6.53L36.60 7.67L37.48 7.67L37.48 13.15L38.89 13.15L38.88 7.67L40.29 7.67Z"></path></g><!----><g data-v-423bf9ae="" id="7338a779-891a-4850-9ded-d76018668acc" transform="matrix(2.8125,0,0,2.8125,0,0)" stroke="none" fill="#108F64"><path d="M0 16.024L15.976 32 32 15.976 16.024 0 0 16.024zm15.989 7.323l-7.336-7.336 14.694-.022-7.358 7.358z"></path></g><!----></svg>