<svg data-v-423bf9ae="" xmlns="http://www.w3.org/2000/svg" viewBox="0 0 300 90" class="iconLeft"><!----><!----><!----><g data-v-423bf9ae="" id="6e800269-7e79-447f-8b59-98030da46148" fill="#152925" transform="matrix(5.681817956043021,0,0,5.681817956043021,108.23863343871872,-1.5340890708294879)"><path d="M0.31 5.94L0.73 5.94C0.90 4.41 1.19 4.10 2.83 4.10L3.65 4.10L3.65 12.00C3.65 12.78 3.61 12.81 2.11 12.89L2.11 13.30L6.58 13.30L6.58 12.89C5.08 12.81 5.04 12.78 5.04 12.00L5.04 4.10L5.87 4.10C7.50 4.10 7.80 4.41 7.97 5.94L8.39 5.94L8.39 3.61L0.31 3.61ZM7.98 11.48C7.98 12.53 8.68 13.47 10.00 13.47C10.81 13.47 11.63 12.92 12.08 12.63C12.28 13.15 12.50 13.47 12.99 13.47C13.51 13.47 14.11 13.31 14.64 13.05L14.56 12.71C14.36 12.75 14.06 12.78 13.85 12.73C13.59 12.67 13.36 12.40 13.36 11.52L13.36 8.13C13.36 7.32 13.17 6.27 11.06 6.27C9.48 6.27 8.23 7.10 8.23 7.87C8.23 8.32 8.75 8.53 9.02 8.53C9.31 8.53 9.39 8.37 9.46 8.13C9.77 7.10 10.35 6.76 10.91 6.76C11.45 6.76 12.10 7.04 12.10 8.16L12.10 8.75C11.75 9.11 10.39 9.46 9.28 9.81C8.27 10.12 7.98 10.82 7.98 11.48ZM9.39 11.28C9.39 10.63 9.70 10.29 10.49 10.00C11.05 9.79 11.79 9.52 12.10 9.32L12.10 11.30C12.10 12.43 11.23 12.73 10.68 12.73C9.81 12.73 9.39 12.11 9.39 11.28ZM15.27 10.96L15.41 12.80C15.92 13.24 16.77 13.47 17.60 13.47C19.26 13.47 20.22 12.59 20.22 11.40C20.22 10.16 19.46 9.60 18.02 9.16C17.44 8.97 16.52 8.68 16.52 7.90C16.52 7.17 17.08 6.76 17.78 6.76C18.77 6.76 19.25 7.53 19.35 8.39L19.75 8.39L19.75 6.75C19.29 6.41 18.58 6.27 17.95 6.27C16.44 6.27 15.40 6.99 15.40 8.32C15.40 9.48 16.35 10.00 17.51 10.35C18.14 10.54 19.03 10.86 19.03 11.82C19.03 12.53 18.47 12.98 17.72 12.98C16.59 12.98 15.96 12.15 15.68 10.96ZM21 13.30L24.42 13.30L24.42 12.89C23.42 12.82 23.37 12.80 23.37 12.08L23.37 9.74L23.39 9.74C23.97 10.65 24.96 11.87 25.69 12.61C26.21 13.13 26.75 13.30 27.20 13.33L28.25 13.37L28.25 12.98C27.83 12.87 27.48 12.66 27.05 12.22C26.18 11.37 25.09 10.04 24.56 9.28C24.49 9.18 24.46 9.11 24.60 8.96C25.27 8.19 25.72 7.78 26.19 7.43C26.67 7.08 27.02 6.92 27.83 6.83L27.83 6.44L26.39 6.44C25.91 6.44 25.79 6.51 25.51 6.85C25.10 7.34 23.72 9.07 23.39 9.55L23.37 9.55L23.37 3.00L23.27 2.91L21.07 3.26L21.07 3.61L21.60 3.67C21.97 3.71 22.05 3.78 22.05 4.31L22.05 12.08C22.05 12.80 22.01 12.82 21 12.89ZM28.71 10.96L28.85 12.80C29.36 13.24 30.21 13.47 31.04 13.47C32.70 13.47 33.66 12.59 33.66 11.40C33.66 10.16 32.90 9.60 31.46 9.16C30.88 8.97 29.96 8.68 29.96 7.90C29.96 7.17 30.52 6.76 31.22 6.76C32.21 6.76 32.69 7.53 32.79 8.39L33.19 8.39L33.19 6.75C32.73 6.41 32.02 6.27 31.39 6.27C29.88 6.27 28.84 6.99 28.84 8.32C28.84 9.48 29.79 10.00 30.95 10.35C31.58 10.54 32.47 10.86 32.47 11.82C32.47 12.53 31.91 12.98 31.16 12.98C30.03 12.98 29.40 12.15 29.12 10.96Z"></path></g><!----><g data-v-423bf9ae="" id="33d7f393-76f1-43f0-bdf9-04affb582af8" transform="matrix(2.8125,0,0,2.8125,0,0)" stroke="none" fill="#108f64"><path d="M0 16.024L15.976 32 32 15.976 16.024 0 0 16.024zm15.989 7.323l-7.336-7.336 14.694-.022-7.358 7.358z"></path></g><!----></svg>