<svg data-v-423bf9ae="" xmlns="http://www.w3.org/2000/svg" viewBox="0 0 253.54836974435375 60" class="font"><!----><!----><!----><g data-v-423bf9ae="" id="9a13731e-e7aa-4b54-a8aa-835b63612b48" fill="#39414d" transform="matrix(5.529953722625812,0,0,5.529953722625812,-3.2626726916534494,-15.594469843896292)"><path d="M0.59 9.91L0.59 9.91L0.59 9.91Q0.59 9.07 0.86 8.38L0.86 8.38L0.86 8.38Q1.12 7.69 1.59 7.19L1.59 7.19L1.59 7.19Q2.06 6.70 2.71 6.43L2.71 6.43L2.71 6.43Q3.36 6.17 4.14 6.17L4.14 6.17L4.14 6.17Q4.93 6.17 5.58 6.43L5.58 6.43L5.58 6.43Q6.23 6.70 6.70 7.19L6.70 7.19L6.70 7.19Q7.16 7.68 7.42 8.37L7.42 8.37L7.42 8.37Q7.68 9.06 7.68 9.90L7.68 9.90L7.68 9.90Q7.68 10.73 7.42 11.42L7.42 11.42L7.42 11.42Q7.16 12.11 6.70 12.61L6.70 12.61L6.70 12.61Q6.23 13.11 5.58 13.39L5.58 13.39L5.58 13.39Q4.93 13.67 4.14 13.67L4.14 13.67L4.14 13.67Q3.34 13.67 2.69 13.39L2.69 13.39L2.69 13.39Q2.04 13.12 1.58 12.62L1.58 12.62L1.58 12.62Q1.11 12.13 0.85 11.44L0.85 11.44L0.85 11.44Q0.59 10.75 0.59 9.91ZM1.93 9.91L1.93 9.91L1.93 9.91Q1.93 10.52 2.11 11.01L2.11 11.01L2.11 11.01Q2.28 11.50 2.59 11.85L2.59 11.85L2.59 11.85Q2.89 12.20 3.29 12.38L3.29 12.38L3.29 12.38Q3.69 12.57 4.14 12.57L4.14 12.57L4.14 12.57Q4.61 12.57 5.02 12.39L5.02 12.39L5.02 12.39Q5.43 12.20 5.73 11.86L5.73 11.86L5.73 11.86Q6.03 11.51 6.20 11.02L6.20 11.02L6.20 11.02Q6.37 10.53 6.37 9.91L6.37 9.91L6.37 9.91Q6.37 9.27 6.20 8.77L6.20 8.77L6.20 8.77Q6.03 8.27 5.73 7.94L5.73 7.94L5.73 7.94Q5.43 7.60 5.02 7.43L5.02 7.43L5.02 7.43Q4.61 7.26 4.14 7.26L4.14 7.26L4.14 7.26Q3.69 7.26 3.29 7.43L3.29 7.43L3.29 7.43Q2.89 7.60 2.59 7.94L2.59 7.94L2.59 7.94Q2.28 8.27 2.11 8.77L2.11 8.77L2.11 8.77Q1.93 9.27 1.93 9.91ZM13.72 13.45L13.72 12.28L14.72 12.28L14.72 9.04L14.72 9.04Q14.72 8.23 14.30 7.81L14.30 7.81L14.30 7.81Q13.89 7.39 13.12 7.39L13.12 7.39L13.12 7.39Q12.67 7.39 12.22 7.60L12.22 7.60L12.22 7.60Q11.77 7.81 11.37 8.13L11.37 8.13L11.37 12.28L12.37 12.28L12.37 13.45L9.06 13.45L9.06 12.28L10.04 12.28L10.04 7.55L9.06 7.55L9.06 6.37L11.31 6.37L11.31 7.21L11.33 7.21L11.33 7.21Q11.55 7.01 11.81 6.83L11.81 6.83L11.81 6.83Q12.07 6.65 12.35 6.52L12.35 6.52L12.35 6.52Q12.63 6.39 12.93 6.32L12.93 6.32L12.93 6.32Q13.23 6.24 13.57 6.24L13.57 6.24L13.57 6.24Q14.14 6.24 14.59 6.40L14.59 6.40L14.59 6.40Q15.05 6.56 15.37 6.88L15.37 6.88L15.37 6.88Q15.70 7.20 15.87 7.70L15.87 7.70L15.87 7.70Q16.04 8.20 16.04 8.89L16.04 8.89L16.04 12.28L17.03 12.28L17.03 13.45L13.72 13.45ZM24.70 10.08L19.60 10.08L19.60 10.08Q19.60 10.38 19.64 10.63L19.64 10.63L19.64 10.63Q19.69 10.88 19.77 11.10L19.77 11.10L19.77 11.10Q20.02 11.79 20.58 12.13L20.58 12.13L20.58 12.13Q21.14 12.48 21.84 12.48L21.84 12.48L21.84 12.48Q22.39 12.48 22.92 12.32L22.92 12.32L22.92 12.32Q23.44 12.17 24.01 11.84L24.01 11.84L24.53 12.71L24.53 12.71Q23.83 13.19 23.13 13.42L23.13 13.42L23.13 13.42Q22.42 13.65 21.66 13.65L21.66 13.65L21.66 13.65Q20.95 13.65 20.33 13.41L20.33 13.41L20.33 13.41Q19.72 13.17 19.28 12.70L19.28 12.70L19.28 12.70Q18.84 12.23 18.59 11.53L18.59 11.53L18.59 11.53Q18.34 10.82 18.34 9.88L18.34 9.88L18.34 9.88Q18.34 9.13 18.55 8.45L18.55 8.45L18.55 8.45Q18.76 7.78 19.19 7.28L19.19 7.28L19.19 7.28Q19.61 6.77 20.23 6.48L20.23 6.48L20.23 6.48Q20.85 6.19 21.68 6.19L21.68 6.19L21.68 6.19Q22.48 6.19 23.01 6.43L23.01 6.43L23.01 6.43Q23.55 6.67 23.89 7.07L23.89 7.07L23.89 7.07Q24.23 7.47 24.40 7.98L24.40 7.98L24.40 7.98Q24.58 8.50 24.64 9.03L24.64 9.03L24.64 9.03Q24.68 9.29 24.69 9.56L24.69 9.56L24.69 9.56Q24.70 9.82 24.70 10.08L24.70 10.08ZM21.59 7.25L21.59 7.25L21.59 7.25Q21.14 7.25 20.81 7.38L20.81 7.38L20.81 7.38Q20.48 7.51 20.25 7.74L20.25 7.74L20.25 7.74Q20.02 7.98 19.88 8.32L19.88 8.32L19.88 8.32Q19.74 8.66 19.67 9.08L19.67 9.08L23.34 9.08L23.34 9.08Q23.31 8.69 23.21 8.35L23.21 8.35L23.21 8.35Q23.11 8.02 22.91 7.77L22.91 7.77L22.91 7.77Q22.70 7.53 22.38 7.39L22.38 7.39L22.38 7.39Q22.06 7.25 21.59 7.25ZM26.37 3.99L26.37 2.82L28.67 2.82L28.67 12.28L29.74 12.28L29.74 13.45L26.37 13.45L26.37 12.28L27.40 12.28L27.40 3.99L26.37 3.99ZM30.93 7.55L30.93 6.37L33.24 6.37L33.24 12.28L34.30 12.28L34.30 13.45L30.94 13.45L30.94 12.28L31.95 12.28L31.95 7.55L30.93 7.55ZM31.71 3.86L31.71 3.86L31.71 3.86Q31.71 3.68 31.78 3.52L31.78 3.52L31.78 3.52Q31.86 3.36 31.98 3.24L31.98 3.24L31.98 3.24Q32.09 3.12 32.26 3.05L32.26 3.05L32.26 3.05Q32.42 2.98 32.61 2.98L32.61 2.98L32.61 2.98Q32.79 2.98 32.95 3.05L32.95 3.05L32.95 3.05Q33.11 3.12 33.23 3.24L33.23 3.24L33.23 3.24Q33.35 3.36 33.42 3.52L33.42 3.52L33.42 3.52Q33.49 3.68 33.49 3.86L33.49 3.86L33.49 3.86Q33.49 4.05 33.42 4.21L33.42 4.21L33.42 4.21Q33.35 4.38 33.23 4.50L33.23 4.50L33.23 4.50Q33.11 4.63 32.95 4.70L32.95 4.70L32.95 4.70Q32.79 4.77 32.61 4.77L32.61 4.77L32.61 4.77Q32.42 4.77 32.26 4.70L32.26 4.70L32.26 4.70Q32.09 4.63 31.98 4.50L31.98 4.50L31.98 4.50Q31.86 4.38 31.78 4.21L31.78 4.21L31.78 4.21Q31.71 4.05 31.71 3.86ZM39.56 8.27L39.56 8.27Q39.56 7.98 39.43 7.78L39.43 7.78L39.43 7.78Q39.29 7.58 39.08 7.45L39.08 7.45L39.08 7.45Q38.87 7.33 38.61 7.27L38.61 7.27L38.61 7.27Q38.35 7.21 38.10 7.21L38.10 7.21L38.10 7.21Q37.83 7.21 37.60 7.27L37.60 7.27L37.60 7.27Q37.37 7.33 37.21 7.45L37.21 7.45L37.21 7.45Q37.04 7.57 36.95 7.73L36.95 7.73L36.95 7.73Q36.86 7.90 36.86 8.11L36.86 8.11L36.86 8.11Q36.86 8.46 37.07 8.67L37.07 8.67L37.07 8.67Q37.29 8.88 37.80 9.06L37.80 9.06L39.16 9.54L39.16 9.54Q40.03 9.83 40.43 10.34L40.43 10.34L40.43 10.34Q40.84 10.84 40.84 11.55L40.84 11.55L40.84 11.55Q40.84 12.02 40.65 12.41L40.65 12.41L40.65 12.41Q40.46 12.80 40.12 13.08L40.12 13.08L40.12 13.08Q39.77 13.36 39.29 13.51L39.29 13.51L39.29 13.51Q38.80 13.67 38.21 13.67L38.21 13.67L38.21 13.67Q37.38 13.67 36.86 13.40L36.86 13.40L36.86 13.40Q36.34 13.13 36.06 12.69L36.06 12.69L35.35 12.69L35.35 11.52L36.76 11.52L36.76 11.52Q36.76 11.81 36.89 12.02L36.89 12.02L36.89 12.02Q37.02 12.23 37.23 12.36L37.23 12.36L37.23 12.36Q37.43 12.49 37.70 12.55L37.70 12.55L37.70 12.55Q37.96 12.61 38.23 12.61L38.23 12.61L38.23 12.61Q38.50 12.61 38.75 12.55L38.75 12.55L38.75 12.55Q38.99 12.48 39.18 12.36L39.18 12.36L39.18 12.36Q39.37 12.23 39.48 12.05L39.48 12.05L39.48 12.05Q39.59 11.87 39.59 11.65L39.59 11.65L39.59 11.65Q39.59 11.31 39.36 11.07L39.36 11.07L39.36 11.07Q39.14 10.83 38.61 10.64L38.61 10.64L37.26 10.13L37.26 10.13Q36.43 9.84 36.03 9.38L36.03 9.38L36.03 9.38Q35.63 8.93 35.63 8.24L35.63 8.24L35.63 8.24Q35.63 7.79 35.80 7.41L35.80 7.41L35.80 7.41Q35.96 7.03 36.28 6.75L36.28 6.75L36.28 6.75Q36.60 6.47 37.06 6.32L37.06 6.32L37.06 6.32Q37.52 6.16 38.10 6.16L38.10 6.16L38.10 6.16Q38.86 6.16 39.38 6.37L39.38 6.37L39.38 6.37Q39.89 6.58 40.30 7.10L40.30 7.10L40.96 7.10L40.96 8.27L39.56 8.27ZM44.31 4.09L44.31 6.37L45.97 6.37L45.97 7.40L44.30 7.40L44.28 11.49L44.28 11.49Q44.28 11.91 44.37 12.17L44.37 12.17L44.37 12.17Q44.47 12.43 44.68 12.53L44.68 12.53L44.68 12.53Q44.89 12.63 45.16 12.63L45.16 12.63L45.16 12.63Q45.45 12.63 45.66 12.57L45.66 12.57L45.66 12.57Q45.88 12.52 46.14 12.40L46.14 12.40L46.44 13.25L46.44 13.25Q46.11 13.43 45.75 13.52L45.75 13.52L45.75 13.52Q45.38 13.62 44.89 13.62L44.89 13.62L44.89 13.62Q44.43 13.62 44.08 13.51L44.08 13.51L44.08 13.51Q43.74 13.40 43.50 13.13L43.50 13.13L43.50 13.13Q43.26 12.87 43.15 12.42L43.15 12.42L43.15 12.42Q43.03 11.97 43.03 11.30L43.03 11.30L43.05 7.40L41.92 7.40L41.92 6.37L43.07 6.37L43.07 4.68L44.31 4.09Z"></path></g><!----><!----></svg>